<mxfile host="Electron" modified="2024-03-07T07:08:59.312Z" agent="Mozilla/5.0 (Windows NT 10.0; Win64; x64) AppleWebKit/537.36 (KHTML, like Gecko) draw.io/23.1.5 Chrome/120.0.6099.109 Electron/28.1.0 Safari/537.36" etag="DyN_IrfOAgPnzg_Cbsz5" version="23.1.5" type="device">
  <diagram name="Страница — 1" id="R0a2RrSUO7OeUar3INXG">
    <mxGraphModel dx="1918" dy="638" grid="1" gridSize="10" guides="1" tooltips="1" connect="1" arrows="1" fold="1" page="1" pageScale="1" pageWidth="827" pageHeight="1169" math="0" shadow="0">
      <root>
        <mxCell id="0" />
        <mxCell id="1" parent="0" />
        <mxCell id="2KrxWvYQxyNJq68pblUF-3" value="" style="edgeStyle=orthogonalEdgeStyle;rounded=0;orthogonalLoop=1;jettySize=auto;html=1;" edge="1" parent="1" source="2KrxWvYQxyNJq68pblUF-1" target="2KrxWvYQxyNJq68pblUF-2">
          <mxGeometry relative="1" as="geometry" />
        </mxCell>
        <mxCell id="2KrxWvYQxyNJq68pblUF-1" value="Начало" style="ellipse;whiteSpace=wrap;html=1;" vertex="1" parent="1">
          <mxGeometry x="359" y="170" width="110" height="60" as="geometry" />
        </mxCell>
        <mxCell id="2KrxWvYQxyNJq68pblUF-5" value="" style="edgeStyle=orthogonalEdgeStyle;rounded=0;orthogonalLoop=1;jettySize=auto;html=1;" edge="1" parent="1" source="2KrxWvYQxyNJq68pblUF-2" target="2KrxWvYQxyNJq68pblUF-4">
          <mxGeometry relative="1" as="geometry" />
        </mxCell>
        <mxCell id="2KrxWvYQxyNJq68pblUF-2" value="cout &amp;lt;&amp;lt; &quot;Ходы для решения Ханойской башни с &quot; &amp;lt;&amp;lt; numDisks &amp;lt;&amp;lt; &quot; диск:&quot; &amp;lt;&amp;lt; endl;" style="shape=parallelogram;perimeter=parallelogramPerimeter;whiteSpace=wrap;html=1;fixedSize=1;" vertex="1" parent="1">
          <mxGeometry x="246" y="290" width="336" height="60" as="geometry" />
        </mxCell>
        <mxCell id="2KrxWvYQxyNJq68pblUF-7" value="" style="edgeStyle=orthogonalEdgeStyle;rounded=0;orthogonalLoop=1;jettySize=auto;html=1;" edge="1" parent="1" source="2KrxWvYQxyNJq68pblUF-4" target="2KrxWvYQxyNJq68pblUF-6">
          <mxGeometry relative="1" as="geometry" />
        </mxCell>
        <mxCell id="2KrxWvYQxyNJq68pblUF-4" value="hanoiTower(numDisks, startRod, auxiliaryRod, destinationRod);" style="whiteSpace=wrap;html=1;" vertex="1" parent="1">
          <mxGeometry x="316" y="390" width="196" height="80" as="geometry" />
        </mxCell>
        <mxCell id="2KrxWvYQxyNJq68pblUF-6" value="return 0;" style="ellipse;whiteSpace=wrap;html=1;" vertex="1" parent="1">
          <mxGeometry x="366" y="500" width="96" height="50" as="geometry" />
        </mxCell>
        <mxCell id="2KrxWvYQxyNJq68pblUF-10" style="edgeStyle=orthogonalEdgeStyle;rounded=0;orthogonalLoop=1;jettySize=auto;html=1;entryX=0.5;entryY=0;entryDx=0;entryDy=0;" edge="1" parent="1" source="2KrxWvYQxyNJq68pblUF-8" target="2KrxWvYQxyNJq68pblUF-9">
          <mxGeometry relative="1" as="geometry" />
        </mxCell>
        <mxCell id="2KrxWvYQxyNJq68pblUF-8" value="void moveDisk(int disk, char start, char destination) {" style="shape=process;whiteSpace=wrap;html=1;backgroundOutline=1;" vertex="1" parent="1">
          <mxGeometry x="-150" y="210" width="230" height="90" as="geometry" />
        </mxCell>
        <mxCell id="2KrxWvYQxyNJq68pblUF-9" value="&amp;nbsp;cout &amp;lt;&amp;lt; &quot;Перемещаем диск &quot; &amp;lt;&amp;lt; disk &amp;lt;&amp;lt; &quot; с стержня &quot; &amp;lt;&amp;lt; start &amp;lt;&amp;lt; &quot; на стержень &quot; &amp;lt;&amp;lt; destination &amp;lt;&amp;lt; endl;" style="shape=parallelogram;perimeter=parallelogramPerimeter;whiteSpace=wrap;html=1;fixedSize=1;" vertex="1" parent="1">
          <mxGeometry x="-217.5" y="350" width="365" height="90" as="geometry" />
        </mxCell>
        <mxCell id="2KrxWvYQxyNJq68pblUF-13" value="" style="edgeStyle=orthogonalEdgeStyle;rounded=0;orthogonalLoop=1;jettySize=auto;html=1;" edge="1" parent="1" source="2KrxWvYQxyNJq68pblUF-11" target="2KrxWvYQxyNJq68pblUF-12">
          <mxGeometry relative="1" as="geometry" />
        </mxCell>
        <mxCell id="2KrxWvYQxyNJq68pblUF-11" value="void hanoiTower(int disks, char start, char auxiliary, char destination) {" style="shape=process;whiteSpace=wrap;html=1;backgroundOutline=1;" vertex="1" parent="1">
          <mxGeometry x="-590" y="210" width="210" height="90" as="geometry" />
        </mxCell>
        <mxCell id="2KrxWvYQxyNJq68pblUF-14" style="edgeStyle=orthogonalEdgeStyle;rounded=0;orthogonalLoop=1;jettySize=auto;html=1;" edge="1" parent="1" source="2KrxWvYQxyNJq68pblUF-12" target="2KrxWvYQxyNJq68pblUF-15">
          <mxGeometry relative="1" as="geometry">
            <mxPoint x="-580" y="470" as="targetPoint" />
            <Array as="points">
              <mxPoint x="-570" y="400" />
            </Array>
          </mxGeometry>
        </mxCell>
        <mxCell id="2KrxWvYQxyNJq68pblUF-16" style="edgeStyle=orthogonalEdgeStyle;rounded=0;orthogonalLoop=1;jettySize=auto;html=1;" edge="1" parent="1" source="2KrxWvYQxyNJq68pblUF-12">
          <mxGeometry relative="1" as="geometry">
            <mxPoint x="-480" y="560" as="targetPoint" />
            <Array as="points">
              <mxPoint x="-349" y="400" />
            </Array>
          </mxGeometry>
        </mxCell>
        <mxCell id="2KrxWvYQxyNJq68pblUF-12" value="if (disks == 1) {" style="rhombus;whiteSpace=wrap;html=1;" vertex="1" parent="1">
          <mxGeometry x="-537.5" y="350" width="105" height="100" as="geometry" />
        </mxCell>
        <mxCell id="2KrxWvYQxyNJq68pblUF-17" style="edgeStyle=orthogonalEdgeStyle;rounded=0;orthogonalLoop=1;jettySize=auto;html=1;" edge="1" parent="1" source="2KrxWvYQxyNJq68pblUF-15">
          <mxGeometry relative="1" as="geometry">
            <mxPoint x="-480" y="560" as="targetPoint" />
            <Array as="points">
              <mxPoint x="-570" y="550" />
              <mxPoint x="-569" y="550" />
            </Array>
          </mxGeometry>
        </mxCell>
        <mxCell id="2KrxWvYQxyNJq68pblUF-15" value="moveDisk(disks, start, destination);" style="rounded=0;whiteSpace=wrap;html=1;" vertex="1" parent="1">
          <mxGeometry x="-630" y="470" width="120" height="60" as="geometry" />
        </mxCell>
        <mxCell id="2KrxWvYQxyNJq68pblUF-19" value="" style="endArrow=classic;html=1;rounded=0;" edge="1" parent="1" target="2KrxWvYQxyNJq68pblUF-20">
          <mxGeometry width="50" height="50" relative="1" as="geometry">
            <mxPoint x="-480" y="560" as="sourcePoint" />
            <mxPoint x="-480" y="650" as="targetPoint" />
          </mxGeometry>
        </mxCell>
        <mxCell id="2KrxWvYQxyNJq68pblUF-22" value="" style="edgeStyle=orthogonalEdgeStyle;rounded=0;orthogonalLoop=1;jettySize=auto;html=1;" edge="1" parent="1" source="2KrxWvYQxyNJq68pblUF-20" target="2KrxWvYQxyNJq68pblUF-21">
          <mxGeometry relative="1" as="geometry" />
        </mxCell>
        <mxCell id="2KrxWvYQxyNJq68pblUF-20" value="hanoiTower(disks - 1, start, destination, auxiliary);" style="rounded=0;whiteSpace=wrap;html=1;" vertex="1" parent="1">
          <mxGeometry x="-570" y="620" width="180" height="60" as="geometry" />
        </mxCell>
        <mxCell id="2KrxWvYQxyNJq68pblUF-24" value="" style="edgeStyle=orthogonalEdgeStyle;rounded=0;orthogonalLoop=1;jettySize=auto;html=1;" edge="1" parent="1" source="2KrxWvYQxyNJq68pblUF-21" target="2KrxWvYQxyNJq68pblUF-23">
          <mxGeometry relative="1" as="geometry" />
        </mxCell>
        <mxCell id="2KrxWvYQxyNJq68pblUF-21" value="moveDisk(disks, start, destination);" style="rounded=0;whiteSpace=wrap;html=1;" vertex="1" parent="1">
          <mxGeometry x="-570" y="720" width="180" height="60" as="geometry" />
        </mxCell>
        <mxCell id="2KrxWvYQxyNJq68pblUF-23" value="&amp;nbsp;hanoiTower(disks - 1, auxiliary, start, destination);" style="rounded=0;whiteSpace=wrap;html=1;" vertex="1" parent="1">
          <mxGeometry x="-570" y="810" width="180" height="60" as="geometry" />
        </mxCell>
        <mxCell id="2KrxWvYQxyNJq68pblUF-25" value="int main() {&#xa;    setlocale(LC_ALL, &quot;Rus&quot;);&#xa;    int numDisks = 3; // Количество дисков&#xa;    char startRod = &#39;A&#39;, auxiliaryRod = &#39;B&#39;, destinationRod = &#39;C&#39;;" style="text;whiteSpace=wrap;" vertex="1" parent="1">
          <mxGeometry x="500" y="200" width="360" height="80" as="geometry" />
        </mxCell>
        <mxCell id="2KrxWvYQxyNJq68pblUF-26" value="" style="shape=partialRectangle;whiteSpace=wrap;html=1;bottom=1;right=1;left=1;top=0;fillColor=none;routingCenterX=-0.5;direction=south;" vertex="1" parent="1">
          <mxGeometry x="492" y="190" width="60" height="80" as="geometry" />
        </mxCell>
        <mxCell id="2KrxWvYQxyNJq68pblUF-27" value="" style="shape=partialRectangle;whiteSpace=wrap;html=1;bottom=1;right=1;left=1;top=0;fillColor=none;routingCenterX=-0.5;direction=north;" vertex="1" parent="1">
          <mxGeometry x="767" y="190" width="60" height="80" as="geometry" />
        </mxCell>
      </root>
    </mxGraphModel>
  </diagram>
</mxfile>
